<svg width="256" height="256" viewBox="0 0 256 256" fill="none" xmlns="http://www.w3.org/2000/svg">
  <defs>
    <radialGradient id="g" cx="50%" cy="50%" r="70%">
      <stop offset="0%" stop-color="#8B5CF6"/>
      <stop offset="55%" stop-color="#3B82F6"/>
      <stop offset="100%" stop-color="#F97316"/>
    </radialGradient>
    <linearGradient id="leaf" x1="0" y1="0" x2="1" y2="1">
      <stop offset="0%" stop-color="#34D399"/>
      <stop offset="100%" stop-color="#10B981"/>
    </linearGradient>
    <filter id="shadow" x="-20%" y="-20%" width="140%" height="140%">
      <feDropShadow dx="0" dy="8" stdDeviation="10" flood-color="#000" flood-opacity="0.25"/>
    </filter>
  </defs>
  <rect x="16" y="16" width="224" height="224" rx="56" fill="url(#g)"/>
  <g filter="url(#shadow)">
    <path d="M76 168c24-8 42-30 52-60 10 30 28 52 52 60-18 8-36 10-52 8-16 2-34 0-52-8z" fill="white" opacity="0.14"/>
  </g>
  <g transform="translate(64,64)">
    <path d="M0 128V0h20l56 82 56-82h20v128h-20V42l-56 82-56-82v86H0z" fill="white"/>
    <path d="M152 24c-18 0-32 14-32 32 18 0 32-14 32-32z" fill="url(#leaf)"/>
  </g>
</svg>